<svg version="1.1" id="Layer_1" x="0" y="0" xml:space="preserve" width="463" height="463"
     xmlns="http://www.w3.org/2000/svg"><style type="text/css" id="style2">.st1{fill:#083042}.st2{fill:#3ddb85}.st4{fill:#4285f4}.st5{fill:#d6f0ff}.st9{opacity:.1}</style>
    <g id="g86" transform="translate(-68.5 -93.125)"><path class="st1" d="M217.85 372.88z" id="path6"/>
        <path class="st1" d="M217.707 279.602z" id="path8"/>
        <path class="st1"
              d="M219.897 375.503c.797.784 1.703 1.47 2.703 2.034l68.187 38.514-68.187-38.514c-1-.564-1.906-1.25-2.703-2.034z"
              id="path10"/>
        <path class="st1"
              d="M301.274 464.738c-.182.005-.363.02-.545.022a28.942 28.942 0 0 1-14.473-3.74L184.53 403.56a19.152 19.152 0 0 1-9.746-16.508l-.002-116.834c-.05-4.986.936-9.792 2.959-14.028l-79.534-44.557c-3.348 7-4.979 14.944-4.897 23.187l.003 192.85c.11 11.302 6.23 21.703 16.088 27.25l167.91 94.844a47.774 47.774 0 0 0 23.89 6.173l.002-.136c.188-12.026.129-60.54.07-91.064z"
              id="path12"/>
        <path class="st2" d="M381.24 277.467a20.677 20.677 0 0 1 0 0z" id="path14"/>
        <path class="st2" d="M218.64 277.617z" id="path16"/>
        <path class="st2" d="M297.365 230.757z" id="path18"/>
        <path d="M177.75 256.173c2.18-4.557 5.563-8.448 10.17-11.169l95.763-56.493a28.942 28.942 0 0 1 28.957-.278l96.811 54.68c4.316 2.44 8.096 5.886 10.862 9.963l.03.05 78.251-46.732c-4.565-6.731-10.804-12.418-17.928-16.447L320.864 99.49a47.772 47.772 0 0 0-47.798.46L114.994 193.2c-7.603 4.49-13.187 10.912-16.785 18.434l79.533 44.557.008-.018z"
              id="path20" style="fill:#3ddc84"/>
        <path class="st2" d="M293.387 231.507z" id="path22"/>
        <path class="st2" d="M218.055 278.74c-.133.279-.228.577-.348.862.12-.285.215-.583.348-.861z" id="path24"/>
        <path class="st4"
              d="m498.594 206.194-78.25 46.731c2.996 4.418 4.821 9.558 4.874 14.924l-.002 111.184a28.962 28.962 0 0 1-14.24 25.216l-95.764 56.501c-4.305 2.546-9.11 3.858-13.938 3.988.059 30.524.118 79.038-.07 91.064l-.002.136c8.273-.067 16.533-2.258 23.909-6.617l158.071-93.265a47.806 47.806 0 0 0 23.506-41.623l.002-183.525c-.087-8.89-3.118-17.405-8.096-24.714z"
              id="path26"/>
        <path class="st4" d="M383.032 367.104z" id="path28"/>
        <path class="st4" d="M382.008 278.844a19.936 19.936 0 0 1 0 0z" id="path30"/>
        <path class="st4" d="m310.197 415.87 64.191-37.873z" id="path32"/>
        <path class="st4" d="M382.162 369.36z" id="path34"/>
        <path class="st4" d="M377.492 375.724z" id="path36"/>
        <path class="st4" d="M381.424 370.827z" id="path38"/>
        <path class="st5"
              d="M217.707 279.602a20.825 20.825 0 0 0-1.535 6.07 23.508 23.508 0 0 0-.106 2.484l.001 78.315a12.853 12.853 0 0 0 3.83 9.032c.797.784 1.703 1.47 2.703 2.034l68.187 38.514a19.4 19.4 0 0 0 9.701 2.507c.242-.002.484-.018.726-.029a19.334 19.334 0 0 0 8.983-2.658l64.191-37.874a19.464 19.464 0 0 0 3.104-2.273 19.372 19.372 0 0 0 3.932-4.897c.269-.477.51-.968.738-1.467a19.352 19.352 0 0 0 .87-2.256c.603-1.917.92-3.94.901-6.01l.001-74.526a16.838 16.838 0 0 0-.522-3.98 18.204 18.204 0 0 0-.846-2.529 19.175 19.175 0 0 0-.558-1.215c-.235-.47-.495-.927-.768-1.377-.191-.316-.385-.63-.594-.936-.463-.683-.97-1.34-1.513-1.966a22.004 22.004 0 0 0-5.767-4.712L308.472 233.2a19.43 19.43 0 0 0-9.73-2.509c-.46.004-.92.029-1.377.066a19.386 19.386 0 0 0-3.978.75 19.359 19.359 0 0 0-4.325 1.88l-64.19 37.867a17.028 17.028 0 0 0-4.833 4.256 17.624 17.624 0 0 0-1.984 3.23c-.133.279-.229.577-.348.862z"
              id="path40"/>
        <path class="st1"
              d="M301.214 418.53c-.242.01-.484.026-.726.028a19.4 19.4 0 0 1-9.7-2.507L222.6 377.537a12.793 12.793 0 0 1-4.75-4.657 12.853 12.853 0 0 1-1.783-6.41v-78.314c-.009-.836.026-1.666.105-2.483a20.83 20.83 0 0 1 1.535-6.071l-18.412-11.337-21.553-12.074c-2.023 4.236-3.008 9.042-2.958 14.028l.002 116.834a19.152 19.152 0 0 0 9.746 16.508l101.724 57.459a28.942 28.942 0 0 0 14.473 3.74c.182-.001.364-.018.546-.022-.03-14.894-.058-25.505-.058-25.505z"
              id="path42"/>
        <path d="M301.214 418.53c-.242.01-.484.026-.726.028a19.4 19.4 0 0 1-9.7-2.507L222.6 377.537a12.793 12.793 0 0 1-4.75-4.657 12.853 12.853 0 0 1-1.783-6.41v-78.314c-.009-.836.026-1.666.105-2.483a20.83 20.83 0 0 1 1.535-6.071l-18.412-11.337-21.553-12.074c-2.023 4.236-3.008 9.042-2.958 14.028l.002 116.834a19.152 19.152 0 0 0 9.746 16.508l101.724 57.459a28.942 28.942 0 0 0 14.473 3.74c.182-.001.364-.018.546-.022-.03-14.894-.058-25.505-.058-25.505z"
              id="path44" style="fill:#041619"/>
        <path class="st2"
              d="m409.451 242.913-96.811-54.68a28.942 28.942 0 0 0-28.957.278l-95.764 56.493c-4.606 2.721-7.99 6.612-10.169 11.169l-.008.018 21.553 12.074 18.412 11.337c.12-.285.215-.583.348-.861.183-.382.378-.757.586-1.124.416-.735.882-1.438 1.399-2.106a17.027 17.027 0 0 1 4.832-4.257l64.19-37.867a19.356 19.356 0 0 1 4.325-1.88c.205-.06.41-.12.617-.175a19.387 19.387 0 0 1 14.469 1.869l64.893 36.652a22.006 22.006 0 0 1 5.768 4.712c.543.626 1.05 1.283 1.513 1.966.208.306.402.62.593.936l16.554-11.075 22.55-13.467-.03-.049c-2.767-4.077-6.547-7.522-10.862-9.963z"
              id="path46"/>
        <path d="m409.451 242.913-96.811-54.68a28.942 28.942 0 0 0-28.957.278l-95.764 56.493c-4.606 2.721-7.99 6.612-10.169 11.169l-.008.018 21.553 12.074 18.412 11.337c.12-.285.215-.583.348-.861.183-.382.378-.757.586-1.124.416-.735.882-1.438 1.399-2.106a17.027 17.027 0 0 1 4.832-4.257l64.19-37.867a19.356 19.356 0 0 1 4.325-1.88c.205-.06.41-.12.617-.175a19.387 19.387 0 0 1 14.469 1.869l64.893 36.652a22.006 22.006 0 0 1 5.768 4.712c.543.626 1.05 1.283 1.513 1.966.208.306.402.62.593.936l16.554-11.075 22.55-13.467-.03-.049c-2.767-4.077-6.547-7.522-10.862-9.963z"
              id="path48" style="fill:#37bf6e"/>
        <path class="st4"
              d="M381.24 277.467c.273.45.533.908.768 1.377.2.399.387.804.558 1.215.343.822.627 1.667.846 2.53.328 1.292.51 2.625.523 3.979l-.001 74.527a19.415 19.415 0 0 1-1.772 8.265c-.228.499-.469.99-.738 1.467a19.423 19.423 0 0 1-3.932 4.897 19.348 19.348 0 0 1-3.104 2.273l-64.19 37.874a19.334 19.334 0 0 1-8.984 2.658l.003 20.705s.029 10.61.058 25.504c4.828-.13 9.633-1.442 13.938-3.988l95.764-56.501a28.962 28.962 0 0 0 14.24-25.216V267.849c-.052-5.366-1.877-10.506-4.873-14.924l-22.55 13.467z"
              id="path50"/>
        <path d="M381.24 277.467c.273.45.533.908.768 1.377.2.399.387.804.558 1.215.343.822.627 1.667.846 2.53.328 1.292.51 2.625.523 3.979l-.001 74.527a19.415 19.415 0 0 1-1.772 8.265c-.228.499-.469.99-.738 1.467a19.423 19.423 0 0 1-3.932 4.897 19.348 19.348 0 0 1-3.104 2.273l-64.19 37.874a19.334 19.334 0 0 1-8.984 2.658l.003 20.705s.029 10.61.058 25.504c4.828-.13 9.633-1.442 13.938-3.988l95.764-56.501a28.962 28.962 0 0 0 14.24-25.216V267.849c-.052-5.366-1.877-10.506-4.873-14.924l-22.55 13.467z"
              id="path52" style="fill:#3870b2"/>
        <path class="st5"
              d="M293.387 231.507a19.354 19.354 0 0 0-4.325 1.88l-64.19 37.867 64.19-37.867a19.358 19.358 0 0 1 4.325-1.88z"
              id="path54"/>
        <path class="st9"
              d="M293.387 231.507a19.354 19.354 0 0 0-4.325 1.88l-64.19 37.867 64.19-37.867a19.358 19.358 0 0 1 4.325-1.88z"
              id="path56"/>
        <path class="st5"
              d="M379.134 274.565a22.007 22.007 0 0 0-5.768-4.712L308.472 233.2l64.894 36.653a22.004 22.004 0 0 1 5.768 4.712z"
              id="path58"/>
        <path class="st9"
              d="M379.134 274.565a22.007 22.007 0 0 0-5.768-4.712L308.472 233.2l64.894 36.653a22.004 22.004 0 0 1 5.768 4.712z"
              id="path60"/>
        <path class="st5" d="M298.741 230.691z" id="path62"/>
        <path class="st9" d="M298.741 230.691z" id="path64"/>
        <path class="st5" d="M294.004 231.332z" id="path66"/>
        <path class="st9" d="M294.004 231.332z" id="path68"/>
        <path class="st5" d="M299.998 230.72z" id="path70"/>
        <path class="st9" d="M299.998 230.72z" id="path72"/>
        <path class="st5" d="M382.833 367.698z" id="path74"/>
        <path class="st9" d="M382.833 367.698z" id="path76"/>
        <path class="st5" d="M382.566 280.06z" id="path78"/>
        <path class="st9" d="M382.566 280.06z" id="path80"/>
        <path class="st5"
              d="M383.032 367.104c.603-1.917.92-3.94.902-6.01v-74.526 74.527a19.414 19.414 0 0 1-.902 6.009z"
              id="path82"/>
        <path class="st9"
              d="M383.032 367.104c.603-1.917.92-3.94.902-6.01v-74.526 74.527a19.414 19.414 0 0 1-.902 6.009z"
              id="path84"/></g></svg>