<?xml version="1.0" encoding="UTF-8" standalone="no"?>
<!-- Generator: Adobe Illustrator 24.0.1, SVG Export Plug-In . SVG Version: 6.00 Build 0)  -->

<svg
        version="1.1"
        id="Layer_1"
        x="0px"
        y="0px"
        viewBox="0 0 720 719.99999"
        xml:space="preserve"
        width="720"
        height="720"
        xmlns="http://www.w3.org/2000/svg"
><defs
   id="defs93" />
<style
   type="text/css"
   id="style2">
	.st0{fill:none;}
	.st1{fill:#083042;}
	.st2{fill:#3DDB85;}
	.st3{fill:#3DDC84;}
	.st4{fill:#4285F4;}
	.st5{fill:#D6F0FF;}
	.st6{fill:#041619;}
	.st7{fill:#37BF6E;}
	.st8{fill:#3870B2;}
	.st9{opacity:0.1;}
</style>
<g
   id="g86"
   transform="translate(60.000773,35.375275)">
		<path
   class="st1"
   d="m 217.84953,372.87985 c -0.84554,-1.43341 -1.4126,-3.03116 -1.65274,-4.7084 0.24015,1.67724 0.80721,3.27499 1.65274,4.7084 z"
   id="path6" />
		<path
   class="st1"
   d="m 217.70691,279.60187 h -1.5e-4 c -0.79755,1.90082 -1.32974,3.93826 -1.53502,6.07083 0.20527,-2.13263 0.73747,-4.17001 1.53517,-6.07083 z"
   id="path8" />
		<path
   class="st1"
   d="m 219.89713,375.50259 c 0.79663,0.78448 1.70255,1.47086 2.70325,2.03406 l 68.18677,38.51459 -68.18677,-38.51459 c -1.00071,-0.5632 -1.90662,-1.24957 -2.70325,-2.03406 z"
   id="path10" />
		<path
   class="st1"
   d="m 301.27426,464.73755 c -0.18204,0.005 -0.36362,0.0205 -0.54562,0.022 -4.98434,0.041 -9.98514,-1.20554 -14.47287,-3.74002 L 184.5312,403.56143 c -5.97159,-3.36087 -9.67946,-9.66211 -9.74603,-16.50885 l -0.002,-116.83322 c -0.0497,-4.98636 0.93579,-9.79251 2.95862,-14.0282 l -79.5333,-44.55675 c -3.3485,6.99887 -4.9792,14.94356 -4.89709,23.1862 l 0.0027,192.85059 c 0.10989,11.30157 6.23016,21.70251 16.08743,27.25021 l 167.91141,94.84311 c 7.40775,4.18353 15.66211,6.24097 23.88943,6.17346 l 0.002,-0.13556 c 0.18773,-12.02654 0.12843,-60.54058 0.0694,-91.06487 z"
   id="path12" />
		<path
   class="st2"
   d="m 381.24014,277.46683 v -9e-5 c -0.19107,-0.31577 -0.38519,-0.62976 -0.59348,-0.93549 -0.46353,-0.68329 -0.9696,-1.34009 -1.51297,-1.96655 0.54337,0.62646 1.04944,1.28326 1.51297,1.96655 0.20814,0.30573 0.40241,0.61981 0.59348,0.93558 z"
   id="path14" />
		<path
   class="st2"
   d="m 218.64075,277.61685 c 0.41566,-0.73438 0.88191,-1.43826 1.39886,-2.10629 -0.51695,0.66803 -0.9832,1.37192 -1.39886,2.10629 z"
   id="path16" />
		<path
   class="st2"
   d="m 297.3649,230.75699 c 0.45822,-0.0369 0.91724,-0.0611 1.37653,-0.0655 -0.45929,0.004 -0.91831,0.0285 -1.37653,0.0655 z"
   id="path18" />
		<path
   class="st3"
   d="m 177.75031,256.17267 c 2.17949,-4.55711 5.56285,-8.44746 10.1691,-11.16853 l 95.76321,-56.49268 c 8.90863,-5.26447 19.94547,-5.36597 28.95721,-0.27811 l 96.81161,54.67958 c 4.31567,2.44055 8.09555,5.88586 10.86142,9.96346 0.0109,0.016 0.0201,0.0329 0.0309,0.0489 l 78.25052,-46.73178 c -4.56549,-6.73065 -10.80469,-12.41774 -17.92853,-16.4462 L 320.86383,99.49044 c -14.87512,-8.39819 -33.09299,-8.23064 -47.798,0.45914 l -158.07135,93.24947 c -7.60351,4.49161 -13.18781,10.91313 -16.78564,18.43536 l 79.5333,44.55675 c 0.003,-0.006 0.005,-0.0125 0.008,-0.0185 z"
   id="path20" />
		<path
   class="st2"
   d="m 293.3873,231.50714 c 0.20496,-0.0611 0.40994,-0.12105 0.61642,-0.17523 -0.20633,0.0542 -0.41147,0.11418 -0.61642,0.17523 z"
   id="path22" />
		<path
   class="st2"
   d="m 218.05496,278.74078 c 0.18263,-0.38187 0.37779,-0.75671 0.58578,-1.12393 -0.20799,0.36722 -0.40315,0.742 -0.58578,1.12387 -0.13313,0.27817 -0.22836,0.57581 -0.34821,0.86115 h 1.5e-4 c 0.1197,-0.28528 0.21493,-0.58292 0.34806,-0.86109 z"
   id="path24" />
		<path
   class="st4"
   d="m 498.59433,206.19351 -78.25052,46.73178 c 2.99667,4.41763 4.82147,9.55728 4.87415,14.92401 l -0.002,111.1832 c 0.094,10.35211 -5.33179,19.96094 -14.24026,25.21622 l -95.76352,56.50174 c -4.30557,2.54529 -9.10986,3.85803 -13.93842,3.98709 0.059,30.52429 0.11832,79.03833 -0.0694,91.06488 l -0.002,0.13556 c 8.27258,-0.0667 16.53296,-2.258 23.90826,-6.61749 l 158.07181,-93.26459 c 14.70471,-8.67468 23.66074,-24.5354 23.50558,-41.62323 l 0.002,-183.52437 c -0.0872,-8.89053 -3.11815,-17.40524 -8.09645,-24.7148 z"
   id="path26" />
		<path
   class="st4"
   d="m 383.03204,367.10388 c -0.0629,0.19946 -0.12949,0.39725 -0.19864,0.59439 0.0692,-0.19705 0.13587,-0.39486 0.19864,-0.59439 z"
   id="path28" />
		<path
   class="st4"
   d="m 382.00827,278.84402 c -0.23532,-0.46927 -0.49554,-0.92667 -0.76813,-1.37729 v 9e-5 c 0.27259,0.4506 0.53281,0.90803 0.76813,1.3772 z"
   id="path30" />
		<path
   class="st4"
   d="M 310.19708,415.87094 374.3883,377.9974 c 0.37311,-0.22015 0.73715,-0.45175 1.09186,-0.69415 -0.35471,0.2424 -0.71875,0.47394 -1.09186,0.69406 z"
   id="path32" />
		<path
   class="st4"
   d="m 382.16235,369.36044 c -0.22821,0.49814 -0.46939,0.98996 -0.73868,1.46671 0.26929,-0.47675 0.51047,-0.96857 0.73868,-1.46671 z"
   id="path34" />
		<path
   class="st4"
   d="m 377.49182,375.724 c 0.9465,-0.84976 1.80203,-1.78607 2.55743,-2.79318 -0.7554,1.00711 -1.61077,1.94351 -2.55743,2.79318 z"
   id="path36" />
		<path
   class="st4"
   d="m 381.42368,370.82715 c -0.4119,0.72946 -0.87088,1.43228 -1.37442,2.10367 0.50354,-0.67139 0.96252,-1.37421 1.37442,-2.10367 z"
   id="path38" />
		<path
   class="st5"
   d="m 217.70691,279.60187 c -0.7977,1.90082 -1.3299,3.9382 -1.53517,6.07083 -0.0785,0.81763 -0.1138,1.64685 -0.10535,2.48364 l 10e-4,78.31436 c 0.006,0.57364 0.0494,1.1416 0.12935,1.70074 0.24014,1.67725 0.80721,3.27499 1.65274,4.7084 0.5636,0.95557 1.25096,1.83817 2.04759,2.62274 0.79663,0.78448 1.70255,1.47086 2.70325,2.03406 l 68.18677,38.51459 c 3.00812,1.69891 6.36011,2.53442 9.7012,2.50702 0.2421,-0.002 0.48389,-0.0182 0.72583,-0.0292 3.11487,-0.14059 6.20389,-1.01532 8.98291,-2.65811 L 374.3883,377.9973 c 0.37311,-0.22012 0.73715,-0.45166 1.09186,-0.69406 0.70938,-0.48474 1.38074,-1.0127 2.01166,-1.57925 0.94666,-0.84967 1.80203,-1.78607 2.55743,-2.79318 0.50354,-0.67139 0.96252,-1.37421 1.37442,-2.10367 0.26929,-0.47675 0.51047,-0.96857 0.73868,-1.46671 0.24875,-0.54294 0.47305,-1.09702 0.67105,-1.66217 0.0692,-0.19714 0.13571,-0.39493 0.19864,-0.59439 0.60315,-1.91672 0.92026,-3.93964 0.9014,-6.00919 l 10e-4,-74.52701 c -0.0133,-1.35391 -0.1947,-2.68628 -0.52283,-3.97949 -0.21887,-0.86215 -0.50293,-1.70679 -0.84586,-2.52884 -0.17145,-0.41101 -0.35754,-0.81635 -0.55768,-1.21533 -0.23532,-0.46918 -0.49554,-0.92661 -0.76813,-1.3772 -0.19107,-0.31577 -0.38535,-0.62985 -0.59348,-0.93558 -0.46353,-0.68329 -0.9696,-1.34009 -1.51297,-1.96655 -1.6304,-1.87927 -3.59799,-3.48508 -5.76755,-4.71194 l -64.89365,-36.65227 c -1.13263,-0.63943 -2.31293,-1.15662 -3.52283,-1.55162 -1.61288,-0.52661 -3.27802,-0.83611 -4.95187,-0.92862 -0.4184,-0.0231 -0.8374,-0.0328 -1.25638,-0.0288 -0.45929,0.004 -0.9183,0.0286 -1.37653,0.0655 -1.13171,0.0913 -2.25589,0.2849 -3.36118,0.57492 -0.20648,0.0542 -0.41147,0.11411 -0.61642,0.17523 -1.49411,0.44548 -2.94852,1.06636 -4.32504,1.87982 l -64.19092,37.86743 c -1.9297,1.14001 -3.53912,2.58612 -4.83173,4.25616 -0.51695,0.66803 -0.9832,1.37192 -1.39886,2.10629 -0.20799,0.36722 -0.40315,0.74207 -0.58578,1.12393 -0.13311,0.27819 -0.22834,0.57583 -0.34803,0.86111 z"
   id="path40" />
		<path
   class="st1"
   d="m 301.21417,418.52905 c -0.24194,0.011 -0.48373,0.0273 -0.72583,0.0292 -3.34109,0.0274 -6.69308,-0.80811 -9.7012,-2.50702 l -68.18677,-38.51459 c -1.0007,-0.5632 -1.90662,-1.24957 -2.70325,-2.03406 -0.79663,-0.78458 -1.48399,-1.66718 -2.04759,-2.62274 -0.84554,-1.43341 -1.4126,-3.03116 -1.65274,-4.7084 -0.08,-0.55914 -0.12376,-1.12711 -0.12935,-1.70074 l -0.001,-78.31436 c -0.008,-0.83679 0.0269,-1.66602 0.10535,-2.48364 0.20528,-2.13257 0.73747,-4.17001 1.53502,-6.07083 l -18.41228,-11.33652 -21.55234,-12.07419 c -2.02283,4.23569 -3.00829,9.04184 -2.95862,14.0282 l 0.002,116.83322 c 0.0666,6.84674 3.77444,13.14798 9.74603,16.50885 l 101.72456,57.45807 c 4.48773,2.53448 9.48853,3.78101 14.47287,3.74002 0.18201,-0.001 0.36359,-0.0171 0.54562,-0.022 -0.0288,-14.89322 -0.0575,-25.50403 -0.0575,-25.50403 z"
   id="path42" />
		<path
   class="st6"
   d="m 301.21417,418.52905 c -0.24194,0.011 -0.48373,0.0273 -0.72583,0.0292 -3.34109,0.0274 -6.69308,-0.80811 -9.7012,-2.50702 l -68.18677,-38.51459 c -1.0007,-0.5632 -1.90662,-1.24957 -2.70325,-2.03406 -0.79663,-0.78458 -1.48399,-1.66718 -2.04759,-2.62274 -0.84554,-1.43341 -1.4126,-3.03116 -1.65274,-4.7084 -0.08,-0.55914 -0.12376,-1.12711 -0.12935,-1.70074 l -0.001,-78.31436 c -0.008,-0.83679 0.0269,-1.66602 0.10535,-2.48364 0.20528,-2.13257 0.73747,-4.17001 1.53502,-6.07083 l -18.41228,-11.33652 -21.55234,-12.07419 c -2.02283,4.23569 -3.00829,9.04184 -2.95862,14.0282 l 0.002,116.83322 c 0.0666,6.84674 3.77444,13.14798 9.74603,16.50885 l 101.72456,57.45807 c 4.48773,2.53448 9.48853,3.78101 14.47287,3.74002 0.18201,-0.001 0.36359,-0.0171 0.54562,-0.022 -0.0288,-14.89322 -0.0575,-25.50403 -0.0575,-25.50403 z"
   id="path44" />
		<path
   class="st2"
   d="m 409.45145,242.91293 -96.81161,-54.67958 c -9.01175,-5.08786 -20.04858,-4.98636 -28.95721,0.27811 l -95.76321,56.49268 c -4.60625,2.72107 -7.98961,6.61142 -10.1691,11.16853 -0.003,0.006 -0.005,0.0125 -0.008,0.0185 l 21.55234,12.07419 18.41228,11.33652 c 0.11984,-0.28534 0.21507,-0.58298 0.34821,-0.86115 0.18263,-0.38187 0.37779,-0.75665 0.58578,-1.12387 0.41566,-0.73438 0.88191,-1.43826 1.39886,-2.10629 1.2926,-1.67004 2.90202,-3.11615 4.83173,-4.25616 l 64.19092,-37.86751 c 1.37653,-0.81346 2.83093,-1.43434 4.32504,-1.87975 0.20496,-0.061 0.4101,-0.12105 0.61642,-0.17523 1.10529,-0.29002 2.22946,-0.4836 3.36118,-0.57492 0.45822,-0.037 0.91724,-0.0611 1.37653,-0.0655 0.41898,-0.004 0.83783,0.006 1.25638,0.0288 1.67386,0.0925 3.33899,0.40193 4.95187,0.92862 1.2099,0.395 2.3902,0.91219 3.52283,1.55162 l 64.89365,36.65218 c 2.16956,1.22696 4.13715,2.83276 5.76755,4.71204 0.54337,0.62646 1.04944,1.28326 1.51297,1.96655 0.20828,0.30573 0.4024,0.61972 0.59348,0.93549 l 16.55396,-11.07449 22.54971,-13.46695 c -0.0109,-0.016 -0.02,-0.0329 -0.0309,-0.0489 -2.76591,-4.0776 -6.54579,-7.52291 -10.86146,-9.96347 z"
   id="path46" />
		<path
   class="st7"
   d="m 409.45145,242.91293 -96.81161,-54.67958 c -9.01175,-5.08786 -20.04858,-4.98636 -28.95721,0.27811 l -95.76321,56.49268 c -4.60625,2.72107 -7.98961,6.61142 -10.1691,11.16853 -0.003,0.006 -0.005,0.0125 -0.008,0.0185 l 21.55234,12.07419 18.41228,11.33652 c 0.11984,-0.28534 0.21507,-0.58298 0.34821,-0.86115 0.18263,-0.38187 0.37779,-0.75665 0.58578,-1.12387 0.41566,-0.73438 0.88191,-1.43826 1.39886,-2.10629 1.2926,-1.67004 2.90202,-3.11615 4.83173,-4.25616 l 64.19092,-37.86751 c 1.37653,-0.81346 2.83093,-1.43434 4.32504,-1.87975 0.20496,-0.061 0.4101,-0.12105 0.61642,-0.17523 1.10529,-0.29002 2.22946,-0.4836 3.36118,-0.57492 0.45822,-0.037 0.91724,-0.0611 1.37653,-0.0655 0.41898,-0.004 0.83783,0.006 1.25638,0.0288 1.67386,0.0925 3.33899,0.40193 4.95187,0.92862 1.2099,0.395 2.3902,0.91219 3.52283,1.55162 l 64.89365,36.65218 c 2.16956,1.22696 4.13715,2.83276 5.76755,4.71204 0.54337,0.62646 1.04944,1.28326 1.51297,1.96655 0.20828,0.30573 0.4024,0.61972 0.59348,0.93549 l 16.55396,-11.07449 22.54971,-13.46695 c -0.0109,-0.016 -0.02,-0.0329 -0.0309,-0.0489 -2.76591,-4.0776 -6.54579,-7.52291 -10.86146,-9.96347 z"
   id="path48" />
		<path
   class="st4"
   d="m 381.24014,277.46674 c 0.27258,0.45062 0.53281,0.90802 0.76813,1.37729 0.20013,0.39899 0.38623,0.80432 0.55768,1.21533 0.34293,0.82205 0.62698,1.66669 0.84586,2.52884 0.32812,1.29321 0.50955,2.62558 0.52283,3.97949 l -10e-4,74.52692 c 0.0189,2.06964 -0.2984,4.09247 -0.90155,6.00928 -0.0628,0.19952 -0.12949,0.39734 -0.19864,0.59439 -0.198,0.56509 -0.4223,1.11932 -0.67105,1.66217 -0.22821,0.49814 -0.46939,0.98996 -0.73868,1.46671 -0.4119,0.72946 -0.87088,1.43228 -1.37442,2.10367 -0.7554,1.00711 -1.61093,1.94342 -2.55743,2.79318 -0.63092,0.56656 -1.30228,1.09451 -2.01166,1.57925 -0.35471,0.2424 -0.71875,0.474 -1.09186,0.69415 l -64.19122,37.87354 c -2.77902,1.64279 -5.86804,2.51752 -8.98291,2.65811 l 0.003,20.70447 c 0,0 0.0287,10.61081 0.0575,25.50403 4.82855,-0.12906 9.63284,-1.4418 13.93842,-3.98709 l 95.76352,-56.50174 c 8.90848,-5.25528 14.33429,-14.86411 14.24026,-25.21622 l 10e-4,-111.1832 c -0.0527,-5.36673 -1.87747,-10.50638 -4.87415,-14.92401 l -22.54971,13.46695 z"
   id="path50" />
		<path
   class="st8"
   d="m 381.24014,277.46674 c 0.27258,0.45062 0.53281,0.90802 0.76813,1.37729 0.20013,0.39899 0.38623,0.80432 0.55768,1.21533 0.34293,0.82205 0.62698,1.66669 0.84586,2.52884 0.32812,1.29321 0.50955,2.62558 0.52283,3.97949 l -10e-4,74.52692 c 0.0189,2.06964 -0.2984,4.09247 -0.90155,6.00928 -0.0628,0.19952 -0.12949,0.39734 -0.19864,0.59439 -0.198,0.56509 -0.4223,1.11932 -0.67105,1.66217 -0.22821,0.49814 -0.46939,0.98996 -0.73868,1.46671 -0.4119,0.72946 -0.87088,1.43228 -1.37442,2.10367 -0.7554,1.00711 -1.61093,1.94342 -2.55743,2.79318 -0.63092,0.56656 -1.30228,1.09451 -2.01166,1.57925 -0.35471,0.2424 -0.71875,0.474 -1.09186,0.69415 l -64.19122,37.87354 c -2.77902,1.64279 -5.86804,2.51752 -8.98291,2.65811 l 0.003,20.70447 c 0,0 0.0287,10.61081 0.0575,25.50403 4.82855,-0.12906 9.63284,-1.4418 13.93842,-3.98709 l 95.76352,-56.50174 c 8.90848,-5.25528 14.33429,-14.86411 14.24026,-25.21622 l 10e-4,-111.1832 c -0.0527,-5.36673 -1.87747,-10.50638 -4.87415,-14.92401 l -22.54971,13.46695 z"
   id="path52" />
		<path
   class="st5"
   d="m 293.3873,231.50714 c -1.49411,0.4454 -2.94852,1.06628 -4.32504,1.87975 l -64.19092,37.86751 64.19092,-37.86743 c 1.37652,-0.81347 2.83093,-1.43435 4.32504,-1.87983 z"
   id="path54" />
		<path
   class="st9"
   d="m 293.3873,231.50714 c -1.49411,0.4454 -2.94852,1.06628 -4.32504,1.87975 l -64.19092,37.86751 64.19092,-37.86743 c 1.37652,-0.81347 2.83093,-1.43435 4.32504,-1.87983 z"
   id="path56" />
		<path
   class="st5"
   d="m 379.1337,274.5647 c -1.6304,-1.87927 -3.59799,-3.48508 -5.76755,-4.71204 l -64.89365,-36.65218 64.89365,36.65227 c 2.16956,1.22687 4.13715,2.83267 5.76755,4.71195 z"
   id="path58" />
		<path
   class="st9"
   d="m 379.1337,274.5647 c -1.6304,-1.87927 -3.59799,-3.48508 -5.76755,-4.71204 l -64.89365,-36.65218 64.89365,36.65227 c 2.16956,1.22687 4.13715,2.83267 5.76755,4.71195 z"
   id="path60" />
		<path
   class="st5"
   d="m 298.74142,230.69148 c 0.41898,-0.004 0.83798,0.006 1.25638,0.0288 -0.41855,-0.0232 -0.8374,-0.0328 -1.25638,-0.0288 z"
   id="path62" />
		<path
   class="st9"
   d="m 298.74142,230.69148 c 0.41898,-0.004 0.83798,0.006 1.25638,0.0288 -0.41855,-0.0232 -0.8374,-0.0328 -1.25638,-0.0288 z"
   id="path64" />
		<path
   class="st5"
   d="m 294.00372,231.33191 c 1.10529,-0.29002 2.22946,-0.48367 3.36118,-0.57492 -1.13172,0.0913 -2.25589,0.2849 -3.36118,0.57492 z"
   id="path66" />
		<path
   class="st9"
   d="m 294.00372,231.33191 c 1.10529,-0.29002 2.22946,-0.48367 3.36118,-0.57492 -1.13172,0.0913 -2.25589,0.2849 -3.36118,0.57492 z"
   id="path68" />
		<path
   class="st5"
   d="m 299.9978,230.72025 c 1.67386,0.0925 3.33899,0.40201 4.95187,0.92862 -1.61288,-0.52669 -3.27801,-0.83611 -4.95187,-0.92862 z"
   id="path70" />
		<path
   class="st9"
   d="m 299.9978,230.72025 c 1.67386,0.0925 3.33899,0.40201 4.95187,0.92862 -1.61288,-0.52669 -3.27801,-0.83611 -4.95187,-0.92862 z"
   id="path72" />
		<path
   class="st5"
   d="m 382.8334,367.69827 c -0.198,0.56516 -0.4223,1.11923 -0.67105,1.66217 0.24875,-0.54284 0.47306,-1.09707 0.67105,-1.66217 z"
   id="path74" />
		<path
   class="st9"
   d="m 382.8334,367.69827 c -0.198,0.56516 -0.4223,1.11923 -0.67105,1.66217 0.24875,-0.54284 0.47306,-1.09707 0.67105,-1.66217 z"
   id="path76" />
		<path
   class="st5"
   d="m 382.56595,280.05936 c 0.34293,0.82205 0.62698,1.66669 0.84586,2.52884 -0.21888,-0.86216 -0.50294,-1.70679 -0.84586,-2.52884 z"
   id="path78" />
		<path
   class="st9"
   d="m 382.56595,280.05936 c 0.34293,0.82205 0.62698,1.66669 0.84586,2.52884 -0.21888,-0.86216 -0.50294,-1.70679 -0.84586,-2.52884 z"
   id="path80" />
		<path
   class="st5"
   d="m 383.03204,367.10388 c 0.60315,-1.91681 0.92041,-3.93964 0.90155,-6.00928 l 0.001,-74.52692 -0.001,74.52701 c 0.0189,2.06956 -0.29825,4.09247 -0.9014,6.00919 z"
   id="path82" />
		<path
   class="st9"
   d="m 383.03204,367.10388 c 0.60315,-1.91681 0.92041,-3.93964 0.90155,-6.00928 l 0.001,-74.52692 -0.001,74.52701 c 0.0189,2.06956 -0.29825,4.09247 -0.9014,6.00919 z"
   id="path84" />
	</g>
</svg>
